/* XPM */
static char * xlaserchess_xpm[] = {
"47 48 3 1",
" 	c None",
".	c #B2CA20810000",
"X	c #F3CE30C20000",
"                                               ",
"                                               ",
"                        .                      ",
"                       ...                     ",
"                      .....                    ",
"                     .......                   ",
"                    .........                  ",
"                   ... ... ...                 ",
"                  ...  ...  ...                ",
"                 ...   ...   ...               ",
"                ...    ...    ...              ",
"               ...     ...     ...             ",
"              ...      ...      ...            ",
"             ...       ...       ...           ",
"            ...        ...        ...          ",
"           ...        .....        ...         ",
"          ...       .........       ...        ",
"         ...      ....XXXXX....      ...       ",
"        ...      ...XXXXXXXXX...      ...      ",
"       ...       ..XXXXXXXXXXX..       ...     ",
"      ...       ..XXXXXXXXXXXXX..       ...    ",
"     ...        ..XXXXXXXXXXXXX..        ...   ",
"    ...        ..XXXXXXXXXXXXXXX..        ...  ",
"   ..............XXXXXXXXXXXXXXX.............. ",
"  ...............XXXXXXXXXXXXXXX...............",
"   ..............XXXXXXXXXXXXXXX.............. ",
"    ...        ..XXXXXXXXXXXXXXX..        ...  ",
"     ...        ..XXXXXXXXXXXXX..        ...   ",
"      ...       ..XXXXXXXXXXXXX..       ...    ",
"       ...       ..XXXXXXXXXXX..       ...     ",
"        ...      ...XXXXXXXXX...      ...      ",
"         ...      ....XXXXX....      ...       ",
"          ...       .........       ...        ",
"           ...        .....        ...         ",
"            ...        ...        ...          ",
"             ...       ...       ...           ",
"              ...      ...      ...            ",
"               ...     ...     ...             ",
"                ...    ...    ...              ",
"                 ...   ...   ...               ",
"                  ...  ...  ...                ",
"                   ... ... ...                 ",
"                    .........                  ",
"                     .......                   ",
"                      .....                    ",
"                       ...                     ",
"                        .                      ",
"                                               "};
